<svg viewBox="0 0 554 325" xmlns="http://www.w3.org/2000/svg" class="Layout_svg__img__3H4YU Layout_svg__color__zxSzW Home_home__img__19gD4"><g clip-path="url(#home-ilustration_svg__clip0)"><path d="M505.712 156.064h-82.419v63.317h82.419v-63.317z" fill="#F5F5F5"></path><path d="M485.066 218.931c.113 0 .205-14.112.205-31.52s-.092-31.52-.205-31.52c-.114 0-.206 14.112-.206 31.52s.092 31.52.206 31.52z" fill="#EBEBEB"></path><path d="M498.716 204.964h-6.315v7.118h6.315v-7.118z" fill="#FAFAFA"></path><path d="M457.796 156.222h-9.362v13.51h9.362v-13.51zM457.796 205.682h-9.362v13.51h9.362v-13.51zM391.876 324.795h136.065V220.271H391.876v104.524z" fill="#EBEBEB"></path><path d="M425.976 324.062c.15 0 .269-23.299.269-52.021 0-28.723-.119-52.022-.269-52.022-.151 0-.269 23.292-.269 52.022 0 28.73.118 52.021.269 52.021z" fill="#E0E0E0"></path><path d="M403.422 312.751h10.43v-11.744h-10.43v11.744z" fill="#FAFAFA"></path><path d="M486.435 220.539h-15.456v22.307h15.456v-22.307zM486.435 302.182h-15.456v22.306h15.456v-22.306z" fill="#E0E0E0"></path><path d="M287.56 36.352c1.093 0 1.979-.092 1.979-.205 0-.113-.886-.205-1.979-.205-1.092 0-1.978.092-1.978.205 0 .113.886.205 1.978.205zM279.647 36.352c1.093 0 1.978-.092 1.978-.205 0-.113-.885-.205-1.978-.205s-1.979.092-1.979.205c0 .113.886.205 1.979.205zM271.734 36.352c1.092 0 1.978-.092 1.978-.205 0-.113-.886-.205-1.978-.205-1.093 0-1.979.092-1.979.205 0 .113.886.205 1.979.205zM263.82 36.352c1.093 0 1.979-.092 1.979-.205 0-.113-.886-.205-1.979-.205-1.092 0-1.978.092-1.978.205 0 .113.886.205 1.978.205zM255.907 36.352c1.092 0 1.978-.092 1.978-.205 0-.113-.886-.205-1.978-.205-1.093 0-1.979.092-1.979.205 0 .113.886.205 1.979.205zM247.993 36.352c1.093 0 1.978-.092 1.978-.205 0-.113-.885-.205-1.978-.205s-1.978.092-1.978.205c0 .113.885.205 1.978.205zM240.079 36.352c1.093 0 1.979-.092 1.979-.205 0-.113-.886-.205-1.979-.205-1.092 0-1.978.092-1.978.205 0 .113.886.205 1.978.205zM232.166 36.352c1.093 0 1.978-.092 1.978-.205 0-.113-.885-.205-1.978-.205s-1.978.092-1.978.205c0 .113.885.205 1.978.205zM224.253 36.352c1.092 0 1.978-.092 1.978-.205 0-.113-.886-.205-1.978-.205-1.093 0-1.979.092-1.979.205 0 .113.886.205 1.979.205zM216.339 36.352c1.092 0 1.978-.092 1.978-.205 0-.113-.886-.205-1.978-.205-1.093 0-1.979.092-1.979.205 0 .113.886.205 1.979.205zM208.426 36.352c1.092 0 1.978-.092 1.978-.205 0-.113-.886-.205-1.978-.205-1.093 0-1.979.092-1.979.205 0 .113.886.205 1.979.205zM200.512 36.352c1.093 0 1.978-.092 1.978-.205 0-.113-.885-.205-1.978-.205s-1.978.092-1.978.205c0 .113.885.205 1.978.205zM192.598 36.352c1.093 0 1.979-.092 1.979-.205 0-.113-.886-.205-1.979-.205-1.092 0-1.978.092-1.978.205 0 .113.886.205 1.978.205zM184.685 36.352c1.093 0 1.978-.092 1.978-.205 0-.113-.885-.205-1.978-.205s-1.978.092-1.978.205c0 .113.885.205 1.978.205zM176.771 36.352c1.093 0 1.979-.092 1.979-.205 0-.113-.886-.205-1.979-.205-1.092 0-1.978.092-1.978.205 0 .113.886.205 1.978.205zM168.858 36.352c1.093 0 1.979-.092 1.979-.205 0-.113-.886-.205-1.979-.205-1.092 0-1.978.092-1.978.205 0 .113.886.205 1.978.205zM160.945 36.352c1.092 0 1.978-.092 1.978-.205 0-.113-.886-.205-1.978-.205-1.093 0-1.979.092-1.979.205 0 .113.886.205 1.979.205zM153.031 36.352c1.093 0 1.978-.092 1.978-.205 0-.113-.885-.205-1.978-.205s-1.978.092-1.978.205c0 .113.885.205 1.978.205zM145.118 36.352c1.092 0 1.978-.092 1.978-.205 0-.113-.886-.205-1.978-.205-1.093 0-1.979.092-1.979.205 0 .113.886.205 1.979.205zM137.204 36.352c1.093 0 1.978-.092 1.978-.205 0-.113-.885-.205-1.978-.205s-1.978.092-1.978.205c0 .113.885.205 1.978.205zM129.29 36.352c1.093 0 1.979-.092 1.979-.205 0-.113-.886-.205-1.979-.205-1.092 0-1.978.092-1.978.205 0 .113.886.205 1.978.205zM121.377 36.352c1.092 0 1.978-.092 1.978-.205 0-.113-.886-.205-1.978-.205-1.093 0-1.979.092-1.979.205 0 .113.886.205 1.979.205zM113.464 36.352c1.092 0 1.978-.092 1.978-.205 0-.113-.886-.205-1.978-.205-1.093 0-1.979.092-1.979.205 0 .113.886.205 1.979.205zM109.451 42.003c.114 0 .206-.882.206-1.97s-.092-1.97-.206-1.97c-.113 0-.205.882-.205 1.97s.092 1.97.205 1.97zM109.451 49.885c.114 0 .206-.882.206-1.97s-.092-1.97-.206-1.97c-.113 0-.205.882-.205 1.97s.092 1.97.205 1.97zM109.451 57.767c.114 0 .206-.882.206-1.97s-.092-1.97-.206-1.97c-.113 0-.205.882-.205 1.97s.092 1.97.205 1.97zM109.451 65.65c.114 0 .206-.883.206-1.971s-.092-1.97-.206-1.97c-.113 0-.205.882-.205 1.97s.092 1.97.205 1.97zM109.451 73.531c.114 0 .206-.882.206-1.97s-.092-1.97-.206-1.97c-.113 0-.205.882-.205 1.97s.092 1.97.205 1.97zM107.916 79.877c.493.178 1.02.246 1.543.197h.198v-.639a4.871 4.871 0 00-.206-1.97 4.907 4.907 0 00-.206 1.97v.434l.198-.197a3.559 3.559 0 00-1.527.205zM101.973 80.082c1.093 0 1.978-.092 1.978-.205 0-.114-.885-.205-1.978-.205s-1.978.091-1.978.205c0 .113.885.205 1.978.205zM94.06 80.082c1.093 0 1.978-.092 1.978-.205 0-.114-.885-.205-1.978-.205s-1.978.091-1.978.205c0 .113.885.205 1.978.205zM86.146 80.082c1.093 0 1.979-.092 1.979-.205 0-.114-.886-.205-1.979-.205-1.092 0-1.978.091-1.978.205 0 .113.886.205 1.978.205zM78.233 80.082c1.092 0 1.978-.092 1.978-.205 0-.114-.886-.205-1.978-.205-1.093 0-1.979.091-1.979.205 0 .113.886.205 1.979.205zM70.32 80.082c1.092 0 1.978-.092 1.978-.205 0-.114-.886-.205-1.979-.205-1.092 0-1.978.091-1.978.205 0 .113.886.205 1.978.205zM62.406 80.082c1.092 0 1.978-.092 1.978-.205 0-.114-.886-.205-1.978-.205-1.093 0-1.979.091-1.979.205 0 .113.886.205 1.979.205zM54.492 80.082c1.093 0 1.978-.092 1.978-.205 0-.114-.885-.205-1.978-.205s-1.978.091-1.978.205c0 .113.885.205 1.978.205zM46.579 80.082c1.093 0 1.978-.092 1.978-.205 0-.114-.885-.205-1.978-.205s-1.978.091-1.978.205c0 .113.885.205 1.978.205zM41.522 84.7c.114 0 .206-.882.206-1.97s-.092-1.97-.206-1.97c-.114 0-.206.882-.206 1.97s.092 1.97.206 1.97zM41.522 92.582c.114 0 .206-.882.206-1.97s-.092-1.97-.206-1.97c-.114 0-.206.882-.206 1.97s.092 1.97.206 1.97zM41.522 100.464c.114 0 .206-.882.206-1.97s-.092-1.97-.206-1.97c-.114 0-.206.882-.206 1.97s.092 1.97.206 1.97zM41.522 108.347c.114 0 .206-.883.206-1.971s-.092-1.97-.206-1.97c-.114 0-.206.882-.206 1.97s.092 1.971.206 1.971zM41.522 116.229c.114 0 .206-.883.206-1.971s-.092-1.97-.206-1.97c-.114 0-.206.882-.206 1.97s.092 1.971.206 1.971zM41.522 124.111c.114 0 .206-.883.206-1.971s-.092-1.97-.206-1.97c-.114 0-.206.882-.206 1.97s.092 1.971.206 1.971zM41.522 131.993c.114 0 .206-.883.206-1.971s-.092-1.97-.206-1.97c-.114 0-.206.882-.206 1.97s.092 1.971.206 1.971zM41.522 139.875c.114 0 .206-.883.206-1.971s-.092-1.97-.206-1.97c-.114 0-.206.882-.206 1.97s.092 1.971.206 1.971zM41.522 147.757c.114 0 .206-.883.206-1.971s-.092-1.97-.206-1.97c-.114 0-.206.882-.206 1.97s.092 1.971.206 1.971zM41.522 155.639c.114 0 .206-.882.206-1.971 0-1.088-.092-1.97-.206-1.97-.114 0-.206.882-.206 1.97 0 1.089.092 1.971.206 1.971zM41.522 163.521c.114 0 .206-.882.206-1.971 0-1.088-.092-1.97-.206-1.97-.114 0-.206.882-.206 1.97 0 1.089.092 1.971.206 1.971zM244.06 49.562s6.141-3.389 12.163 11.082c6.022 14.472 8.088 22.7 8.088 22.7s1.654 3.059 3.814 1.317c2.161-1.742 5.342-6.936 8.705-5.699 3.466 1.285 4.321 5.32 3.165 11.035-1.155 5.715-3.165 18.389-3.331 19.54-.166 1.15.34 2.837 2.01 1.883 1.67-.953 11.538-10.317 15.716-5.383 4.178 4.934-1.583 20.391-2.216 22.07-.633 1.679-.316 2.475.475 2.963.791.489 3.814-2.963 6.734-5.517 2.921-2.554 6.751-4.989 8.919-1.947 2.168 3.043 2.002 14.976-10.857 33.365l-6.521 8.134-10.398-1.395c-22.079-4.335-30.515-12.801-31.077-16.497-.562-3.697 3.902-4.588 7.771-4.769 3.87-.181 8.46.213 8.705-.693.246-.907-.103-1.656-1.725-2.468-1.622-.811-16.555-7.842-17.014-14.282-.459-6.439 13.2-6.534 15.036-6.999 1.836-.465 1.036-2.057.126-2.743-.91-.686-11.205-8.41-16.017-11.752-4.811-3.342-7.011-6.834-5.412-10.16 1.535-3.2 7.446-1.671 10.216-1.907 2.77-.237 1.828-3.579 1.828-3.579s-4.258-7.354-10.011-21.928c-5.753-14.574 1.203-16.394 1.203-16.394" fill="#EBEBEB"></path><path d="M290.567 163.064c-4.265-10.688-10.287-25.404-16.99-41.641-6.703-16.237-12.756-30.93-17.085-41.594l-5.112-12.611-1.361-3.468-.372-.89c-.087-.198-.135-.3-.135-.3s0 .11.103.315l.34.906 1.33 3.46a1336.97 1336.97 0 005.009 12.675c4.265 10.688 10.288 25.404 16.99 41.633 6.703 16.229 12.765 30.937 17.086 41.601" fill="#E0E0E0"></path><path d="M272.644 86.434c-.136.212-.245.44-.325.678-.19.45-.443 1.096-.744 1.908a160.155 160.155 0 00-2.192 6.392l-2.041 6.432-.626 1.947a3.029 3.029 0 00-.197.725c.138-.212.25-.439.332-.678.19-.449.443-1.104.736-1.915.593-1.624 1.337-3.894 2.144-6.409l2.09-6.415.641-1.947c.089-.231.15-.472.182-.718zM265.528 104.625c.035-.094-4.571-1.899-10.289-4.031-5.718-2.133-10.382-3.786-10.417-3.692-.035.094 4.572 1.898 10.289 4.031 5.718 2.133 10.382 3.786 10.417 3.692zM276.925 129.1a3.259 3.259 0 00-.792-.103l-2.089-.157a179.123 179.123 0 01-6.877-.647c-2.674-.307-5.096-.67-6.845-.945l-2.073-.324a3.238 3.238 0 00-.791-.078c.238.101.488.172.743.212.483.111 1.187.268 2.058.434a90.87 90.87 0 006.845 1.048c2.683.308 5.136.473 6.909.544.886 0 1.582.055 2.097.047.272.025.546.014.815-.031zM287.022 114.045c-.176.161-.33.344-.459.544-.277.363-.664.899-1.139 1.576a250.793 250.793 0 00-3.656 5.226 628.286 628.286 0 00-3.569 5.289c-.451.678-.792 1.238-1.045 1.624-.14.192-.254.401-.34.622.176-.16.33-.343.459-.543.277-.363.665-.899 1.139-1.577.95-1.324 2.248-3.153 3.657-5.226a861.208 861.208 0 003.568-5.281c.452-.677.792-1.237 1.045-1.623.141-.195.255-.407.34-.631zM299.874 134.365a4.525 4.525 0 00-.578.702l-1.479 1.986a761.383 761.383 0 00-4.748 6.66 312.384 312.384 0 00-4.638 6.739l-1.377 2.058c-.182.246-.339.51-.467.788.216-.214.41-.449.578-.702l1.472-1.994a783.377 783.377 0 004.748-6.66 450.903 450.903 0 004.653-6.724l1.377-2.057c.18-.249.334-.515.459-.796zM286.777 152.754a5.165 5.165 0 00-.966-.15l-2.643-.299c-2.231-.253-5.31-.615-8.705-1.104a267.341 267.341 0 01-8.657-1.395l-2.619-.457a5.155 5.155 0 00-.974-.126c.305.116.621.203.942.26.609.15 1.496.347 2.604.567 2.2.45 5.262 1.009 8.657 1.498 3.395.489 6.489.788 8.705 1.001 1.123.095 2.026.158 2.659.189.331.038.665.043.997.016z" fill="#E0E0E0"></path><path d="M17.56 196.799l.055.079a59.873 59.873 0 004.036 5.328l15.875 20.95a5.029 5.029 0 008.016 0l16.144-21.281c1.353-1.884 2.682-3.153 3.75-4.95l.08-.103a27.609 27.609 0 00.174-27.796 27.745 27.745 0 00-10.186-10.209 27.889 27.889 0 00-13.954-3.74c-4.901 0-9.715 1.29-13.954 3.74a27.745 27.745 0 00-10.186 10.209 27.61 27.61 0 00.174 27.796l-.024-.023zm11.728-14.125c0-2.41.717-4.766 2.062-6.77a12.221 12.221 0 015.49-4.488 12.275 12.275 0 0113.333 2.642 12.168 12.168 0 013.348 6.239c.472 2.364.23 4.814-.696 7.04a12.195 12.195 0 01-4.506 5.469 12.259 12.259 0 01-15.443-1.518 12.16 12.16 0 01-3.58-8.614h-.008zM145.007 59.667v32.569c0 .336-.134.659-.373.897a1.277 1.277 0 01-.901.372H75.131a1.278 1.278 0 01-1.182-.795 1.266 1.266 0 01-.093-.49l.159-11.926c.015-.289.13-.564.324-.78l9.837-13.092a1.273 1.273 0 011.013-.512l11.332-.087a1.267 1.267 0 001.266-1.269v-4.926a1.265 1.265 0 01.786-1.173c.155-.064.32-.096.488-.096h44.711a1.28 1.28 0 011.153.82c.059.155.087.321.082.488z" fill="#F5F5F5"></path><path d="M94.558 68.7V79.15a.72.72 0 01-.46.675.73.73 0 01-.283.05l-15.139-.267a.73.73 0 01-.639-.39.723.723 0 01.046-.745l7.074-10.397a.728.728 0 01.625-.315l8.056.213a.73.73 0 01.72.725z" fill="#EBEBEB"></path><path d="M72.527 96.768h73.857v-2.27H72.527v2.27z" fill="#F5F5F5"></path><path d="M129.259 102.64c4.034 0 7.304-3.257 7.304-7.275 0-4.018-3.27-7.275-7.304-7.275-4.034 0-7.304 3.257-7.304 7.275 0 4.018 3.27 7.275 7.304 7.275z" fill="#EBEBEB"></path><path d="M129.259 99.645c2.373 0 4.297-1.916 4.297-4.28 0-2.364-1.924-4.28-4.297-4.28-2.373 0-4.297 1.916-4.297 4.28 0 2.364 1.924 4.28 4.297 4.28z" fill="#FAFAFA"></path><path d="M97.795 93.505c.183 0 .332-7.86.332-17.554 0-9.694-.149-17.553-.332-17.553-.184 0-.333 7.859-.333 17.553 0 9.695.15 17.554.333 17.554zM89.454 102.64c4.034 0 7.304-3.257 7.304-7.275 0-4.018-3.27-7.275-7.304-7.275-4.034 0-7.304 3.257-7.304 7.275 0 4.018 3.27 7.275 7.304 7.275z" fill="#EBEBEB"></path><path d="M89.454 99.645c2.373 0 4.297-1.916 4.297-4.28 0-2.364-1.924-4.28-4.297-4.28-2.373 0-4.297 1.916-4.297 4.28 0 2.364 1.924 4.28 4.297 4.28z" fill="#FAFAFA"></path><path d="M91.772 82.273c1.29 0 2.335-.148 2.335-.331 0-.183-1.045-.331-2.335-.331-1.289 0-2.334.148-2.334.33 0 .183 1.045.332 2.334.332z" fill="#EBEBEB"></path><path d="M0 324.795c0 .11 124.028.205 276.972.205 152.944 0 277.012-.095 277.012-.205 0-.11-124.004-.205-277.012-.205-153.007 0-276.972.055-276.972.205z" fill="#263238"></path><path d="M443.377 321.327c-10.659-7.362-13.12-21.092-12.749-33.443.064-2.066-.174-4.233.792-6.046.965-1.813 3.268-3.058 5.128-2.191 1.543.717 2.216 2.491 3.078 3.941a12.091 12.091 0 004.867 4.603c1.321.678 2.952 1.088 4.249.37 1.781-.985 1.987-3.444 1.963-5.517l-.111-11.461a19.047 19.047 0 01.602-6.092c.633-1.947 2.041-3.76 3.996-4.312 1.955-.552 4.384.56 4.803 2.57.082.848.106 1.702.072 2.553a2.162 2.162 0 001.274 2.026c.791.237 1.646-.347 2.255-.946 2.121-2.081 3.553-4.729 4.891-7.409 1.337-2.68 2.635-5.375 4.558-7.637 1.923-2.263 4.582-4.068 7.526-4.241 2.943-.173 6.093 1.624 6.853 4.509.759 2.884-.91 5.832-2.746 8.197a45.859 45.859 0 01-9.497 9.119 3.78 3.78 0 00-1.582 1.719c-.443 1.371.862 2.719 2.216 3.152 1.535.505 3.165.339 4.803.521 1.638.181 3.347.882 3.957 2.364.847 2.089-.902 4.296-2.627 5.738a39.434 39.434 0 01-11.625 6.74 13.261 13.261 0 00-4.321 2.112c-1.219 1.064-1.947 2.908-1.203 4.351.744 1.442 2.635 1.899 4.226 1.576 1.59-.323 2.999-1.158 4.51-1.734 2.826-1.072 6.482-.89 8.302 1.537a6.467 6.467 0 01.712 5.738 14.95 14.95 0 01-3.102 5.076 39.554 39.554 0 01-16.864 11.886c-6.552 2.286-12.661 2.925-19.166.568"></path><path d="M444.082 324.803c.435-4.895.656-4.997 2.469-11.232a183.041 183.041 0 017.248-19.807l2.169-5.092c.712-1.671 1.424-3.327 2.223-4.903a91.762 91.762 0 015.089-8.781c1.756-2.719 3.521-5.241 5.183-7.582s3.276-4.493 4.819-6.392a72.907 72.907 0 017.914-8.418c1.013-.915 1.82-1.577 2.374-2.065l.633-.521c.069-.061.143-.117.221-.165a1.41 1.41 0 01-.197.197l-.61.544c-.538.473-1.329 1.182-2.326 2.112a77.05 77.05 0 00-7.835 8.481c-1.527 1.908-3.11 4.059-4.748 6.408-1.638 2.349-3.41 4.871-5.151 7.591a92.61 92.61 0 00-5.049 8.78c-.791 1.577-1.488 3.216-2.208 4.887l-2.113 5.06a187.893 187.893 0 00-7.264 19.753c-1.829 6.211-2.074 6.305-2.533 11.153" fill="#263238"></path><path d="M458.294 283.753a4.094 4.094 0 01-.205-.875 46.404 46.404 0 01-.388-2.411c-.301-2.042-.617-4.872-.95-7.993-.332-3.121-.688-5.943-1.021-7.976a67.09 67.09 0 00-.403-2.365 4.117 4.117 0 01-.119-.891c.118.276.206.564.261.859.151.56.325 1.372.522 2.365.396 2.026.792 4.855 1.132 7.977l.839 8 .269 2.42c.054.293.075.592.063.89zM484.749 278.732a5.738 5.738 0 01-1.053.127c-.68.063-1.661.149-2.872.291-2.422.268-5.761.788-9.409 1.458-3.648.67-6.94 1.474-9.315 2.121a62.316 62.316 0 00-2.785.788c-.334.116-.679.2-1.029.252.317-.162.648-.294.989-.394a46.528 46.528 0 012.762-.883c2.374-.701 5.627-1.521 9.291-2.23a93.556 93.556 0 019.456-1.348 43.815 43.815 0 012.889-.174 5.688 5.688 0 011.076-.008zM446.867 313.09a1.335 1.335 0 01-.182-.323l-.459-.954c-.396-.827-.926-2.041-1.583-3.547-1.29-3.018-2.936-7.235-4.685-11.917-1.748-4.682-3.363-8.915-4.582-11.949l-1.456-3.595-.387-.977a1.344 1.344 0 01-.111-.355c.075.1.136.208.182.324l.459.953c.396.828.926 2.042 1.583 3.547 1.289 3.019 2.935 7.236 4.692 11.918 1.757 4.682 3.363 8.914 4.582 11.949l1.456 3.594.388.978c.05.113.085.232.103.354zM482.003 301.677c-.109.063-.226.11-.348.142l-1.021.347-3.767 1.198c-3.165 1.04-7.549 2.522-12.376 4.169-4.828 1.648-9.22 3.09-12.417 4.068-1.582.488-2.896.867-3.798 1.111l-1.037.276c-.12.04-.245.064-.372.071.11-.063.227-.11.348-.142l1.021-.347 3.759-1.23c3.166-1.04 7.55-2.522 12.377-4.169 4.827-1.647 9.211-3.09 12.416-4.067 1.583-.489 2.896-.867 3.799-1.112l1.044-.275c.122-.03.247-.044.372-.04z" fill="#263238"></path><path d="M423.618 324.795H313.529C300.22 324.732 289 313.429 289 300.179l1.211-276.273c.013-3.153.65-6.273 1.874-9.182a24.024 24.024 0 015.26-7.767 24.11 24.11 0 017.845-5.171A24.182 24.182 0 01314.423 0L425.05.512a24.147 24.147 0 0116.999 7.107 23.962 23.962 0 016.984 16.997l-1.171 276.273a23.941 23.941 0 01-1.878 9.189 24.009 24.009 0 01-5.268 7.772 24.12 24.12 0 01-7.855 5.168 24.173 24.173 0 01-9.243 1.777z" fill="#263238"></path><path d="M424.892 11.003l-21.451-.063a5.34 5.34 0 00-3.738 1.62 5.297 5.297 0 00-1.493 3.78v3.877a5.279 5.279 0 01-1.492 3.78 5.332 5.332 0 01-3.738 1.62l-41.81-.19a5.34 5.34 0 01-3.722-1.655 5.3 5.3 0 01-1.461-3.791v-3.878a5.3 5.3 0 00-1.461-3.79 5.34 5.34 0 00-3.722-1.657h-7.541l-18.776-.086a16.936 16.936 0 00-6.467 1.25 16.874 16.874 0 00-5.493 3.621 16.8 16.8 0 00-3.684 5.44 16.737 16.737 0 00-1.313 6.43l-1.147 269.668a16.78 16.78 0 004.89 11.907 16.91 16.91 0 0011.908 4.977l110.437.433a16.916 16.916 0 0011.96-4.871 16.776 16.776 0 004.997-11.87l1.115-269.668a16.779 16.779 0 00-4.89-11.907 16.91 16.91 0 00-11.908-4.977z" fill="#F5F5F5"></path><path d="M378.033 263.339c-.126 3.255-.245 6.305-.348 8.851h15.865l-1.939-9.702-13.578.851zM313.577 267.398l.134 4.784h62.431c.103-2.687.221-5.675.34-8.749l-62.905 3.965zM392.402 262.432l1.954 9.758h29.237l-.356-11.697-30.835 1.939zM379.616 126.081l5.53-31.93-14.48-1.072v33.002h8.95zM312.279 249.671l-15.714 6.133-.048 11.09 16.229-1.025-.467-16.198zM312.2 247.181l-.854-29.739h-.016v-10.491l-14.567 1.537-.19 44.778 15.627-6.101v.016zM311.33 183.541l-14.457-1.907-.103 24.481 14.56-1.537v-21.037zM419.092 207.392l-.609 8.528-17.076 1.829 1.322 6.747 19.385-1.458-.292-9.671 1.551-6.401-4.281.426zM388.319 225.576l13.618-1.025-2.967-15.133-11.885 1.198 1.234 14.96zM388.446 227.152l1.044 12.62 1.844 17.308.76 3.792 31.096-1.955-1.028-34.303-33.716 2.538z" fill="#F5F5F5"></path><path d="M311.48 181.192l-14.599-1.915.19-43.824 38.55-6.992h43.892l1.582 19.138-45.655 4.374.15 1.577 45.632-4.375 3.023 36.675-46.084-6.021-.308 2.364 46.613 6.069 1.788 21.668-48.789 4.903-25.32 1.781v-33.057l23.983-13.936-1.195-2.041-23.453 13.612zm25.21 30.874l-2.54-37.258-19.568 10.325c.182 1.017 0 28.281 0 28.281l22.108-1.348zM417.493 207.558l-17.732 1.781 1.345 6.857 15.889-1.702.498-6.936zM378.255 257.498l-.167 4.257 13.199-.836-.681-3.389-12.351-.032zM349.832 126.081l2.327-10.499h17.716V93.024l-55.404-4.091v21.179l-17.305 3.902-.087 19.011 38.329-6.944h14.424zM386.8 63.316l-.474-1.93 21.158-8.34-13.76-27.524a4.993 4.993 0 01-.791.063l-23.382-.11.633 38.511 16.616-.67zM418.87 48.553V10.94h-15.43a5.339 5.339 0 00-3.738 1.62 5.312 5.312 0 00-1.492 3.78v3.877a5.498 5.498 0 01-2.287 4.414l13.768 27.54 9.179-3.618zM309.391 45.89l7.122-35.383 16.735.079h4.289l1.78 39.56-29.926-4.257zm9.321-31.277l-4.874 28.975 22.243 3.24-.57-32.223-16.799.008zM340.132 50.287v.34c0 3.09.103 8.67.15 14.589l29.142-1.182-.633-38.551-17.637-.08a5.343 5.343 0 01-3.722-1.655 5.3 5.3 0 01-1.461-3.79v-3.879a5.3 5.3 0 00-1.461-3.79 5.34 5.34 0 00-3.721-1.656h-2.469l1.788 39.67.024-.016zM307.041 45.55l7.058-35.035a16.898 16.898 0 00-11.707 4.998 16.77 16.77 0 00-4.862 11.727l-.072 17.467.072-.513 9.511 1.356z" fill="#F5F5F5"></path><path d="M312.097 88.76l-14.821-1.096-.103 23.922 14.924-3.358V88.76zM306.883 46.323l-9.424-1.348-.166 38.74 2.025.15 7.565-37.542zM336.824 246.723l.245-31.094-24.932 1.758.878 30.464 23.809-1.128zM341.405 239.519l35.314 16.852c.42-11.035.791-21.281.791-21.967l.792-.04.372-.74c.498.252.498.252.237 7.755-.15 4.186-.356 9.758-.57 15.339h12.154l-1.804-16.899-2.374-29.164-46.138 4.635 1.226 24.229zM427.961 187.939l-.395-4.106-42.325 4.39 1.78 21.605 36.541-3.673 4.399-18.216zM369.875 117.947h-15.81l-1.804 8.134h17.614v-8.134zM423.618 143.5l-41.763 4.004-1.67-20.225 1.583-9.316 39.563 2.727 2.287 22.81zm-39.199 1.277l37.347-4.414-1.994-16.828-34.396-2.167-2.129 5.88 1.172 17.529zM425.532 162.961l-1.733-17.884-41.786 3.996 1.566 19.043 41.953-5.155zM312.793 267.445l-16.213 1.025-.071-1.048-.016 4.768h16.435l-.135-4.745zM441.398 39.67l.237.6.055-12.383a16.78 16.78 0 00-4.89-11.907 16.91 16.91 0 00-11.908-4.977h-5.262v37.259l21.768-8.592z" fill="#F5F5F5"></path><path d="M376.506 261.857l-62.977 3.941-.475-16.458v-.709l24.53-1.159.253-31.914 1.511-.15 1.274 24.647 36.042 17.199-.158 4.603zm-61.924-.189l56.757-3.058-22.369-10.342-34.388 2.365v11.035zM431.151 81.09l1.472-8.71c-12.93-4.594-13.824-18.018-13.784-22.069l-8.435 3.326 12.708 25.404 8.039 2.05zM385.043 185.866l17.574-1.82-3.466-15.465-15.374 1.892 1.266 15.393zM421.489 94.411h-32.822l-2.73-.205-3.703 21.416 38.962 2.679-.91-9.308 3.838-13.746-2.635-.836zM395.069 90.47l-6.876-28.131 20.003-7.882 12.897 25.798-.411 10.246-25.613-.031zm-2.825-25.443l5.056 21.187 20.225.788 1.709-6.984-11.822-22.4-15.168 7.409zM425.793 213.777l.601 20.075 14.227-.796.04.788-14.243.796.728 24.025 13.444-.844.103 1.569-13.499.851.356 11.949h13.103l.285-66.989-13.396 1.348-1.749 7.228zM339.348 50.965l-30.115-4.303-7.533 37.376 37.775 2.79c.158-5.738.024-23.41-.127-35.863zM388.881 90.47h4.557l-6.448-26.373-16.759.686.403 24.347 18.247 1.34zM340.25 86.884l29.562 2.183-.404-24.253-29.15 1.19c.095 8.197.119 16.947-.008 20.88zM425.762 165.318l-25.819 3.168 3.466 15.473 23.927-2.475-1.574-16.166z" fill="#F5F5F5"></path><path d="M432.764 71.553l1.654-9.774 7.121.552.087-21.053-21.989 8.67c-.435 14.81 8.902 20.02 13.127 21.605zM424.298 109.34l.903 9.237 16.102 1.112.079-19.02-13.483-4.24-3.601 12.911zM431.965 188.215l-4.233 17.522 13.206-1.324.079-18.373c-4.051-1.064-7.588-1.931-9.495-2.294l.443 4.469zM423.048 90.77l18.357 5.777.04-10.396-18.025-4.643-.372 9.261zM431.293 181.334c1.48.221 4.281.788 9.733 2.246l.174-40.198-13.452 1.293 3.545 36.659zM427.582 143.13l13.625-1.309.087-19.76-15.864-1.095 2.152 22.164z" fill="#F5F5F5"></path><path d="M434.284 72.05a74.066 74.066 0 007.209 1.828l.039-9.97-5.8-.45-1.448 8.592zM432.693 81.453l8.76 2.254V74.69a75.035 75.035 0 01-7.343-1.86l-1.417 8.623z" fill="#F5F5F5"></path><path d="M296.572 268.47l-.063-1.048v-.528l16.228-1.025-.466-16.198-15.715 6.133v-2.546l15.628-6.101-.839-29.707v-10.499l-14.575 1.576v-2.365l14.559-1.536v-21.069l-14.456-1.9v-2.364l14.606 1.899 23.43-13.636 1.194 2.042-23.983 13.959v33.057l25.321-1.781 48.789-4.903-1.788-21.668-46.614-6.069.309-2.364 46.107 5.998-3.023-36.675-45.632 4.374-.15-1.576 45.656-4.375-1.583-19.137h-43.899l-38.55 6.991v-2.404l38.32-6.944h14.441l2.326-10.499h17.725V93.024l-55.389-4.091v21.179l-17.305 3.902v-2.428l14.923-3.366V88.752l-14.82-1.096v-3.94l2.034.149 7.564-37.542-9.432-1.348v-.268l.071-.512 9.496 1.363 7.058-35.035h2.429l-7.122 35.382 29.934 4.28-1.78-39.56h.791l1.788 39.67v.34c0 3.089.103 8.67.15 14.589l29.143-1.183-.633-38.55h.791l.633 38.511 16.616-.678-.474-1.93 21.158-8.34-13.776-27.532a5.053 5.053 0 002.2-.89l13.768 27.54 9.179-3.619V10.94h.791V48.2l21.744-8.568.237.599v1l-21.989 8.671c-.451 14.818 8.894 20.028 13.119 21.613l1.654-9.774 7.121.552v1.576l-5.8-.45-1.456 8.592a74.04 74.04 0 007.209 1.829v.788a75.035 75.035 0 01-7.343-1.86l-1.456 8.615 8.759 2.254v2.436l-18.025-4.643-.372 9.262 18.35 5.77v4.13l-13.452-4.241-3.6 12.911.839 9.316 16.102 1.135v2.365l-15.825-1.096 2.096 22.149 13.626-1.309v1.577l-13.451 1.293 3.56 36.635c1.48.221 4.281.788 9.733 2.247v2.459c-4.052-1.064-7.588-1.931-9.495-2.294l.435 4.477-4.233 17.522 13.206-1.324v.788l-13.381 1.348-1.748 7.235.601 20.076 14.243-.788.047.788-14.242.788.72 24.025 13.451-.844.103 1.577-13.499.851.324 11.933h-3.956l-.356-11.697-30.859 1.947 1.938 9.75h-.791l-1.938-9.702-13.571.851c-.126 3.255-.245 6.305-.348 8.851h-1.582c.103-2.687.221-5.675.34-8.749l-62.866 3.941.135 4.785h-.792l-.134-4.73-16.221 1.033zm94.714-7.551l-.68-3.389h-12.36l-.166 4.256 13.206-.867zm31.896-2.01l-1.037-34.295-33.715 2.53 1.036 12.612 1.844 17.34.791 3.791 31.081-1.978zm-22.092-42.713l15.896-1.71.499-6.936-17.732 1.781 1.337 6.865zm-14.021-5.588l1.234 14.976 13.626-1.041-2.968-15.133-11.892 1.198zm34.736 2.759l1.583-6.408-4.273.433-.609 8.521-17.076 1.836 1.322 6.747 19.385-1.458-.332-9.671zm-38.044-42.902l1.266 15.393 17.574-1.82-3.45-15.457-15.39 1.884zM427.32 181.5l-1.582-16.166-25.819 3.152 3.466 15.473 23.935-2.459zm-7.042-72.515l3.846-13.707-2.635-.828h-32.822l-2.722-.204-3.711 21.407 38.962 2.688-.918-9.356zm-9.875-55.41l12.708 25.403 8.039 2.112 1.472-8.71c-12.93-4.594-13.824-18.018-13.784-22.069l-8.435 3.263zm-22.219 8.756l6.876 28.131h25.622l.411-10.246-12.898-25.798-20.011 7.913zm-17.961 2.436l.38 24.363 18.278 1.34h4.557l-6.448-26.373-16.767.67zm-29.942 1.221c.064 8.206.087 16.955 0 20.888l29.53 2.191-.403-24.253-29.127 1.174zm-38.59 18.042l37.775 2.79c.151-5.753 0-23.409-.134-35.855l-30.116-4.303-7.525 37.368zm68.959 9.041v33.002h8.965l5.539-31.93-14.504-1.072zm-18.405 33.002h17.63v-8.126h-15.826l-1.804 8.126zm29.617 21.424l41.755-3.997-2.215-22.818-39.564-2.727-1.582 9.316 1.606 20.226zm.127 1.576l1.582 19.035 41.937-5.147-1.741-17.892-41.778 4.004zm5.008 60.755l36.549-3.673 4.399-18.216-.395-4.098-42.325 4.382 1.772 21.605zm-.72.867l-46.138 4.634 1.266 24.19 35.314 16.852c.419-11.035.791-21.281.791-21.967l.791-.04.372-.74c.499.252.499.252.238 7.755-.151 4.186-.356 9.758-.57 15.339h12.154l-1.804-16.899-2.414-29.124zm-74.157 6.692l.879 30.464 23.801-1.128.245-31.102-24.925 1.766zm1.401 48.435l62.976-3.941.174-4.596-36.042-17.198-1.273-24.647-1.512.149-.253 31.915-24.529 1.158v.71l.459 16.45z" fill="#fff"></path><path d="M348.97 248.268l-34.388 2.397v11.003l56.757-3.066-22.369-10.334zM419.804 123.551l-34.396-2.168-2.121 5.88 1.163 17.522 37.348-4.414-1.994-16.82zM313.181 313.792l110.437.504a16.916 16.916 0 0011.96-4.871 16.816 16.816 0 003.684-5.44 16.757 16.757 0 001.312-6.43l.111-25.373H296.517l-.079 19.185v6.038a16.768 16.768 0 005.039 11.572 16.901 16.901 0 0011.704 4.815zM336.088 46.835l-.578-32.222h-16.798l-4.874 28.983 22.25 3.239zM417.533 86.978l1.701-6.983-11.813-22.401-15.177 7.44 5.064 21.188 20.225.756zM314.582 185.133c.182 1.017 0 28.281 0 28.281l22.107-1.395-2.54-37.259-19.567 10.373zM388.319 207.298l-1.163-16.892 37.917-4.855v2.916l-4.581 15.536-32.173 3.295z" fill="#EBEBEB"></path><path d="M355.656 71.813c-2.552 0-4.621-2.06-4.621-4.603 0-2.542 2.069-4.603 4.621-4.603 2.552 0 4.621 2.06 4.621 4.603 0 2.542-2.069 4.603-4.621 4.603z"></path><path opacity="0.6" d="M351.016 67.419c-.109-2.54 1.87-4.688 4.42-4.798 2.55-.11 4.705 1.86 4.814 4.4.109 2.54-1.87 4.688-4.42 4.798-2.55.11-4.705-1.86-4.814-4.4z" fill="#fff"></path><path d="M355.656 70.11a3.064 3.064 0 01-3.07-3.058 3.064 3.064 0 013.07-3.058c1.696 0 3.07 1.37 3.07 3.058a3.064 3.064 0 01-3.07 3.059zM425.074 252.942a1.967 1.967 0 01-1.971-1.962c0-1.084.883-1.963 1.971-1.963s1.97.879 1.97 1.963a1.966 1.966 0 01-1.97 1.962z"></path><path d="M423.886 250.341l-.474-11.035-33.336 1.577a5.064 5.064 0 01-2.516-.536l-47.278-23.788a3.426 3.426 0 01-1.876-2.869l-6.433-124.331a2.097 2.097 0 01.144-.855 2.09 2.09 0 01.481-.722 2.113 2.113 0 011.583-.59l20.264 1.497v-22.07h2.374v22.37a2.08 2.08 0 01-2.239 2.072l-20.249-1.498 6.441 124.064a1.046 1.046 0 00.578.883l47.278 23.788c.413.21.874.308 1.337.283l33.613-1.631a2.096 2.096 0 012.199 1.994l.491 11.295-2.382.102z"></path><path d="M335.835 149.357c-3.304 0-5.982-2.668-5.982-5.959 0-3.291 2.678-5.959 5.982-5.959 3.304 0 5.982 2.668 5.982 5.959 0 3.291-2.678 5.959-5.982 5.959z"></path><path d="M335.835 147.536a4.147 4.147 0 01-4.155-4.138 4.146 4.146 0 014.155-4.138 4.146 4.146 0 014.154 4.138 4.146 4.146 0 01-4.154 4.138z" fill="#FAFAFA"></path><path d="M340.282 143.398a4.431 4.431 0 00-2.75-4.1 4.464 4.464 0 00-4.855.962 4.433 4.433 0 00-.966 4.836 4.44 4.44 0 001.641 1.992 4.472 4.472 0 005.625-.552 4.433 4.433 0 001.305-3.138zm-.594 0a3.838 3.838 0 01-2.383 3.553 3.864 3.864 0 01-2.231.219 3.861 3.861 0 01-1.977-1.052 3.845 3.845 0 01-1.057-1.97 3.843 3.843 0 011.642-3.948 3.868 3.868 0 014.875.478 3.84 3.84 0 011.131 2.72zM371.07 118.404h-28.486a2.51 2.51 0 00-1.773.732 2.49 2.49 0 00-.735 1.767v10.246c0 .663.264 1.298.735 1.767a2.51 2.51 0 001.773.732h.325v2.451l2.848-2.451h25.321a2.51 2.51 0 001.773-.732 2.492 2.492 0 00.735-1.767v-10.246a2.483 2.483 0 00-.738-1.77 2.502 2.502 0 00-1.778-.729z"></path><path opacity="0.4" d="M371.07 118.404h-28.486a2.51 2.51 0 00-1.773.732 2.49 2.49 0 00-.735 1.767v10.246c0 .663.264 1.298.735 1.767a2.51 2.51 0 001.773.732h.325v2.451l2.848-2.451h25.321a2.51 2.51 0 001.773-.732 2.492 2.492 0 00.735-1.767v-10.246a2.483 2.483 0 00-.738-1.77 2.502 2.502 0 00-1.778-.729z" fill="#fff"></path><path d="M348.203 127.516a1.646 1.646 0 001.534-2.001 1.643 1.643 0 00-1.31-1.25 1.647 1.647 0 00-1.814 2.258 1.62 1.62 0 00.935.893c.209.078.432.111.655.1zm0-.41a1.238 1.238 0 01-1.129-.77 1.22 1.22 0 01.277-1.335 1.243 1.243 0 011.344-.259 1.232 1.232 0 01.758 1.134 1.22 1.22 0 01-.086.481 1.225 1.225 0 01-.681.674c-.154.06-.318.088-.483.083v-.008zM351.842 125.033a1.045 1.045 0 00-.854.386v-1.34h-.444v3.397h.428v-.386a1.026 1.026 0 00.87.41 1.246 1.246 0 001.246-1.242 1.246 1.246 0 00-1.246-1.241v.016zm0 2.096a.863.863 0 01-.925-.979.864.864 0 011.716.12.782.782 0 01-.5.798.793.793 0 01-.33.053l.039.008zM353.369 128.383a.731.731 0 00.791-.789v-2.538h-.443v2.538c0 .276-.126.426-.364.426a.557.557 0 01-.356-.118l-.142.339c.152.1.332.15.514.142zm.554-3.815a.29.29 0 00.251-.186.286.286 0 00-.071-.304.286.286 0 00-.481.206.3.3 0 00.021.118.294.294 0 00.288.181l-.008-.015zM357.191 126.278a1.164 1.164 0 00-.324-.891 1.186 1.186 0 00-.879-.362 1.204 1.204 0 00-.882.353 1.19 1.19 0 00-.344.884 1.329 1.329 0 002.271.852l-.245-.284a.906.906 0 01-.705.291.775.775 0 01-.594-.167.792.792 0 01-.292-.542h1.955c0-.039.039-.094.039-.134zm-1.203-.883a.796.796 0 01.792.694h-1.583a.788.788 0 01.791-.686v-.008zM358.869 127.508a1.1 1.1 0 00.997-.521l-.341-.181a.792.792 0 01-.664.347.857.857 0 01-.859-.855.854.854 0 01.859-.855.782.782 0 01.376.09.78.78 0 01.288.256l.333-.212a1.085 1.085 0 00-.997-.521 1.246 1.246 0 00-1.246 1.242 1.239 1.239 0 001.246 1.241l.008-.031zM361.693 127.027a.555.555 0 01-.348.118.353.353 0 01-.38-.41v-1.316h.696v-.363h-.696v-.528h-.443v.528h-.412v.363h.412v1.332a.695.695 0 00.791.788.832.832 0 00.53-.165l-.15-.347zM362.587 124.583a.285.285 0 00.262-.348.287.287 0 00-.081-.141.294.294 0 00-.309-.055.29.29 0 00-.125.105.278.278 0 00.044.36.287.287 0 00.097.06c.036.014.074.02.112.019zm-.221 2.893h.443v-2.428h-.443v2.428zM365.381 125.056l-.855 1.947-.838-1.947h-.459l1.044 2.428h.451l1.068-2.428h-.411zM368.356 126.278a1.164 1.164 0 00-.324-.891 1.196 1.196 0 00-.879-.362 1.201 1.201 0 00-.883.353 1.19 1.19 0 00-.344.884 1.33 1.33 0 002.271.852l-.245-.284a.92.92 0 01-.704.291.775.775 0 01-.594-.167.778.778 0 01-.292-.542h1.978c.016-.039.016-.094.016-.134zm-1.203-.883a.795.795 0 01.791.694h-1.582a.794.794 0 01.791-.686v-.008z" fill="#fff"></path><path d="M360.846 54.733c-.266.394-.554.773-.862 1.135l-3.379 4.461a1.058 1.058 0 01-.854.426 1.072 1.072 0 01-.855-.426l-3.442-4.54c-.285-.402-.57-.67-.791-1.056a5.88 5.88 0 012.135-8.086 5.935 5.935 0 018.105 2.171 5.875 5.875 0 01-.033 5.915h-.024zm-2.5-3.011a2.598 2.598 0 00-1.607-2.396 2.613 2.613 0 00-2.837.562 2.58 2.58 0 00-.564 2.826c.197.474.53.88.958 1.164a2.612 2.612 0 003.287-.322 2.585 2.585 0 00.763-1.834z"></path><path d="M323.317 286.977h.459v-2.806h1.1v-.402h-2.667v.402h1.108v2.806zM326.11 287.009a1.246 1.246 0 001.13-.779 1.229 1.229 0 00-.281-1.339 1.245 1.245 0 00-2.115.872 1.193 1.193 0 00.359.899 1.218 1.218 0 00.907.347zm0-.387a.863.863 0 01-.925-.979.864.864 0 011.716.12.79.79 0 01-.205.604.784.784 0 01-.586.255zM329.22 286.52a.555.555 0 01-.348.118.369.369 0 01-.158-.023.355.355 0 01-.222-.387v-1.316h.696v-.363h-.696v-.528h-.443v.528h-.412v.363h.412v1.332a.695.695 0 00.791.788.831.831 0 00.53-.173l-.15-.339zM330.779 284.526a1.63 1.63 0 00-1.005.315l.182.331c.225-.176.505-.268.791-.26.435 0 .657.213.657.583v.087h-.697c-.728 0-.981.323-.981.709 0 .387.348.718.902.718a.91.91 0 00.792-.347v.323h.411v-1.466c0-.67-.388-.993-1.052-.993zm-.103 2.136c-.333 0-.538-.15-.538-.394 0-.245.126-.379.562-.379h.68v.339a.702.702 0 01-.704.442v-.008zM332.622 286.977h.443v-3.397h-.443v3.397zM337.022 283.58v1.34a1.038 1.038 0 00-.855-.386 1.239 1.239 0 100 2.482 1.023 1.023 0 00.871-.409v.386h.427v-3.413h-.443zm-.792 3.042a.856.856 0 01-.845-.478.85.85 0 01-.079-.501.86.86 0 01.657-.713.865.865 0 01.907.349.864.864 0 01.152.484.78.78 0 01-.041.329.774.774 0 01-.447.472.793.793 0 01-.327.058h.023zM338.518 284.084a.282.282 0 00.251-.185.283.283 0 00-.217-.377.285.285 0 00-.288.123.278.278 0 00.044.36.304.304 0 00.21.079zm-.222 2.893h.443v-2.428h-.443v2.428zM340.282 287.009c.648 0 1.052-.276 1.052-.718 0-.946-1.583-.473-1.583-1.048 0-.189.19-.331.578-.331.248-.007.493.059.704.189l.19-.347a1.778 1.778 0 00-.886-.22c-.625 0-1.013.291-1.013.725 0 .969 1.543.496 1.543 1.04 0 .205-.174.331-.577.331a1.588 1.588 0 01-.855-.252l-.182.347c.305.198.665.297 1.029.284zM343.122 286.52a.555.555 0 01-.348.118.361.361 0 01-.369-.251.356.356 0 01-.011-.159v-1.316h.696v-.363h-.696v-.528h-.443v.528h-.411v.363h.411v1.332a.695.695 0 00.791.788.83.83 0 00.53-.173l-.15-.339zM344.681 284.526a1.634 1.634 0 00-1.005.315l.182.331c.226-.176.506-.268.792-.26.435 0 .657.213.657.583v.087h-.697c-.728 0-.981.323-.981.709 0 .387.348.718.902.718a.907.907 0 00.791-.347v.323h.42v-1.466c-.016-.67-.396-.993-1.061-.993zm-.102 2.136c-.333 0-.539-.15-.539-.394 0-.245.127-.379.562-.379h.681v.339a.702.702 0 01-.704.442v-.008zM347.846 284.526a1.04 1.04 0 00-.878.386v-.363h-.427v2.428h.443v-1.253a.724.724 0 01.791-.788c.419 0 .657.236.657.709v1.348h.443v-1.395a.933.933 0 00-.251-.787.942.942 0 00-.778-.285zM350.75 287.009a1.1 1.1 0 00.997-.521l-.332-.212a.791.791 0 01-.665.346.855.855 0 11.376-1.62c.116.06.215.149.289.257l.332-.213a1.087 1.087 0 00-.997-.52 1.239 1.239 0 00-.881 2.119c.234.233.551.364.881.364zM354.485 285.779a1.164 1.164 0 00-.324-.891 1.181 1.181 0 00-.879-.362 1.184 1.184 0 00-.883.353 1.19 1.19 0 00-.343.884 1.32 1.32 0 00.858 1.159 1.34 1.34 0 001.412-.308l-.245-.283a.92.92 0 01-.704.291.793.793 0 01-.795-.409.758.758 0 01-.091-.3h1.978a.766.766 0 00.016-.134zm-1.203-.883a.795.795 0 01.791.694h-1.582a.785.785 0 01.26-.495.797.797 0 01.523-.199h.008zM322.898 290.579v1.419h1.535v6.235h1.78v-7.654h-3.315zM328.571 296.191a1.036 1.036 0 00-.765.292 1.01 1.01 0 00-.304.757.948.948 0 00.594.93l-.483 1.741h1.052l.626-1.576c.179-.339.279-.713.292-1.095a.991.991 0 00-.279-.742 1.015 1.015 0 00-.733-.307zM329.9 290.579v1.419h1.535v6.235h1.781v-7.654H329.9zM337.845 298.359c1.899 0 3.291-1.435 3.291-3.941 0-2.507-1.392-3.941-3.291-3.941-1.9 0-3.292 1.434-3.292 3.941 0 2.506 1.4 3.941 3.292 3.941zm0-1.498c-.879 0-1.496-.725-1.496-2.459s.617-2.459 1.496-2.459c.878 0 1.503.725 1.503 2.459s-.617 2.459-1.503 2.459zM345.283 298.359c1.899 0 3.291-1.435 3.291-3.941 0-2.507-1.392-3.941-3.291-3.941s-3.292 1.434-3.292 3.941c0 2.506 1.416 3.941 3.292 3.941zm0-1.498c-.879 0-1.496-.725-1.496-2.459s.617-2.459 1.496-2.459c.878 0 1.503.725 1.503 2.459s-.601 2.459-1.503 2.459zM360.483 292.258a2.657 2.657 0 00-2.129.962 2.2 2.2 0 00-1.938-.962 2.383 2.383 0 00-1.852.788v-.717h-1.638v5.88h1.709v-2.956c0-1.048.538-1.576 1.298-1.576s1.116.433 1.116 1.387v3.106h1.685v-2.956c0-1.049.538-1.577 1.306-1.577.767 0 1.115.434 1.115 1.388v3.105h1.71v-3.365c.031-1.695-.966-2.507-2.382-2.507z" fill="#263238"></path><path d="M311.741 296.577c-3.657 0-6.622-2.953-6.622-6.597 0-3.643 2.965-6.597 6.622-6.597 3.658 0 6.623 2.954 6.623 6.597 0 3.644-2.965 6.597-6.623 6.597z"></path><path d="M309.059 291.178a10.186 10.186 0 011.701-.102c1.084 0 2.627-.055 4.479-.071l-.135.291-1.693-1.946-.103-.127.103-.126 1.669-2.08.159.331h-6.22l.182-.182c0 2.002-.039 3.689-.071 4.871.013.625-.024 1.25-.111 1.868a11.663 11.663 0 01-.111-1.868c0-1.182-.055-2.869-.071-4.871v-.181H315.642l-.269.331-1.685 2.065v-.252l1.661 1.97.254.3h-.388c-1.852 0-3.403-.04-4.479-.071a10.14 10.14 0 01-1.677-.15z" fill="#FAFAFA"></path><path d="M418.87 278.717h-20.027c-1.016 0-1.99.402-2.708 1.117a3.809 3.809 0 00-1.122 2.698v15.709c0 1.011.404 1.982 1.122 2.697a3.838 3.838 0 002.708 1.117h.507v3.744l4.359-3.744h15.161c1.016 0 1.99-.402 2.708-1.117a3.808 3.808 0 001.122-2.697v-15.702a3.805 3.805 0 00-1.119-2.702 3.825 3.825 0 00-2.711-1.12z"></path><path d="M400.774 285.921v8.055a.315.315 0 00.316.316h16.949a.315.315 0 00.316-.316v-2.948a.308.308 0 00-.063-.181l-2.429-3.239a.315.315 0 00-.253-.127h-2.801a.317.317 0 01-.309-.315v-1.214a.315.315 0 00-.316-.315h-11.078a.32.32 0 00-.332.284z" fill="#FAFAFA"></path><path d="M413.244 288.159v2.594a.18.18 0 00.182.181l3.743-.063a.182.182 0 00.174-.194.175.175 0 00-.032-.09l-1.748-2.57a.186.186 0 00-.159-.078l-1.994.055a.178.178 0 00-.113.052.184.184 0 00-.053.113z"></path><path d="M418.688 295.096h-18.254v-.56h18.254v.56z" fill="#FAFAFA"></path><path d="M404.667 296.546a1.8 1.8 0 01-1.804-1.797 1.8 1.8 0 011.804-1.797 1.8 1.8 0 011.804 1.797c0 .992-.808 1.797-1.804 1.797z"></path><path d="M404.667 295.805a1.057 1.057 0 110-2.112c.585 0 1.06.472 1.06 1.056 0 .583-.475 1.056-1.06 1.056z" fill="#FAFAFA"></path><path d="M412.445 294.292c-.043 0-.078-1.945-.078-4.343 0-2.399.035-4.343.078-4.343.044 0 .079 1.944.079 4.343 0 2.398-.035 4.343-.079 4.343zM414.51 296.546a1.801 1.801 0 01-1.804-1.797 1.8 1.8 0 011.804-1.797 1.8 1.8 0 011.804 1.797c0 .992-.808 1.797-1.804 1.797z"></path><path d="M414.51 295.805c-.585 0-1.06-.473-1.06-1.056 0-.584.475-1.056 1.06-1.056.586 0 1.061.472 1.061 1.056 0 .583-.475 1.056-1.061 1.056z" fill="#FAFAFA"></path><path d="M413.933 291.509c-.319 0-.578-.035-.578-.079 0-.043.259-.078.578-.078.319 0 .577.035.577.078 0 .044-.258.079-.577.079z"></path><path d="M135.162 159.225s-12.764 2.152-13.793 2.42c-1.029.268-5.072 2.183-5.278 3.413a36.634 36.634 0 000 4.847s.728.591 1.187-.591a12.13 12.13 0 00.388-3.523l2.263-.867-1.235 2.183-.205 5.116s1.582-.142 1.883-1.372a12.17 12.17 0 00.301-2.593l1.654-1.395-1.235 1.663-.419 3.689s1.203.386 1.582-.434a12.68 12.68 0 00.412-3.255l4.653-1.616 3.078 1.71 5.753-3.239-.989-6.156z" fill="#FFBE9D"></path><path d="M179.858 127.799c-.056.253-15.384 21.282-15.384 21.282l-30.784 9.513 1.401 11.516 37.732-7.567 13.389-15.307-6.354-19.437z"></path><path opacity="0.2" d="M179.858 127.799c-.056.253-15.384 21.282-15.384 21.282l-30.784 9.513 1.401 11.516 37.732-7.567 13.389-15.307-6.354-19.437z"></path><path d="M296.368 156.719h-62.896a2.409 2.409 0 00-2.414 2.404v7.401a2.41 2.41 0 002.414 2.404h62.896a2.41 2.41 0 002.414-2.404v-7.401a2.409 2.409 0 00-2.414-2.404z" fill="#F5F5F5"></path><path d="M233.472 168.928s-.135 0-.396-.055a2.383 2.383 0 01-1.316-.716 2.36 2.36 0 01-.623-1.357v-7.741a2.301 2.301 0 01.792-1.686c.258-.221.564-.38.894-.465a3.87 3.87 0 011.068-.079h7.336l55.086.063a2.221 2.221 0 011.63.717 2.271 2.271 0 01.578 1.695v6.912c.017.305-.009.61-.079.907a2.211 2.211 0 01-1.852 1.608h-15.558l-24.769.047-16.698.063h-6.125 6.125l16.698.063 24.769.047H296.629a2.596 2.596 0 001.769-.97c.216-.27.376-.581.471-.913.08-.33.112-.67.095-1.009v-.97-1.947-3.941a2.671 2.671 0 00-.681-1.97 2.62 2.62 0 00-1.939-.851l-55.085.063h-7.336a4.082 4.082 0 00-1.124.094 2.48 2.48 0 00-.981.52 2.508 2.508 0 00-.879 1.853v7.756a2.456 2.456 0 00.958 1.647c.319.242.695.399 1.092.457.151.08.314.134.483.158zM64.738 324.975c17.87-.258 32.145-14.895 31.886-32.693-.259-17.799-14.954-32.018-32.823-31.76-17.87.258-32.145 14.895-31.887 32.693.26 17.798 14.955 32.018 32.824 31.76z" fill="#263238"></path><path d="M96.592 292.203v.087a32.16 32.16 0 01-9.217 22.798 32.421 32.421 0 01-22.673 9.699 32.43 32.43 0 01-22.945-9.043 32.168 32.168 0 01-9.874-22.524v-.087l64.709-.93z" fill="#263238"></path><path d="M64.599 315.375c12.546-.181 22.57-10.458 22.388-22.954-.182-12.497-10.5-22.481-23.047-22.3-12.546.181-22.57 10.459-22.388 22.955.182 12.497 10.5 22.48 23.047 22.299z" fill="#FAFAFA"></path><path d="M63.917 270.125a22.772 22.772 0 0116.158 6.396 22.588 22.588 0 016.886 15.903l-45.431.693a22.551 22.551 0 011.592-8.695 22.611 22.611 0 014.815-7.424 22.71 22.71 0 017.303-5.021 22.8 22.8 0 018.677-1.852z" fill="#E0E0E0"></path><path d="M64.47 306.533c7.643-.111 13.75-6.371 13.639-13.984-.111-7.613-6.397-13.695-14.04-13.585-7.644.11-13.75 6.371-13.639 13.984.11 7.613 6.397 13.695 14.04 13.585z" fill="#263238"></path><path d="M79.602 245.494s-33.126-9.979-46.825 25.869l69.323 21.384-22.498-47.253z"></path><path d="M264.375 324.963c17.869-.258 32.145-14.895 31.886-32.693-.259-17.798-14.955-32.017-32.824-31.759-17.869.258-32.145 14.895-31.886 32.693.259 17.798 14.955 32.017 32.824 31.759z" fill="#263238"></path><path d="M296.241 292.203v.087a32.16 32.16 0 01-9.216 22.798 32.422 32.422 0 01-22.674 9.699 32.43 32.43 0 01-22.945-9.043 32.168 32.168 0 01-9.873-22.524v-.087l64.708-.93z" fill="#263238"></path><path d="M264.235 315.364c12.546-.181 22.57-10.458 22.388-22.955-.182-12.496-10.5-22.48-23.046-22.299-12.547.181-22.57 10.458-22.389 22.955.182 12.496 10.5 22.48 23.047 22.299z" fill="#FAFAFA"></path><path d="M263.567 270.125a22.774 22.774 0 0116.158 6.396 22.592 22.592 0 016.886 15.903l-45.431.654a22.58 22.58 0 016.421-16.094 22.759 22.759 0 0115.966-6.859z" fill="#E0E0E0"></path><path d="M264.106 306.521c7.644-.11 13.75-6.371 13.639-13.984-.111-7.612-6.396-13.695-14.04-13.584-7.643.11-13.749 6.371-13.638 13.984.11 7.613 6.396 13.695 14.039 13.584z" fill="#263238"></path><path d="M217.866 279.812c.182.095 17.03-2.593 17.03-2.593a10.29 10.29 0 007.684 4.004c7.281.347 14.395.67 20.575.938a10.456 10.456 0 017.228 3.36 10.368 10.368 0 01-.326 14.389 10.462 10.462 0 01-6.965 3.028l-35.832 1.403c-5.896.229-13.722-3.334-17.41-7.929l8.016-16.6z" fill="#455A64"></path><path d="M305.896 265.53s1.543-31.41-28.093-37.952v-4.028H173.986v9.664s15.241 18.278 10.287 33.451c-4.953 15.173-6.528 16.726-6.528 16.726h-59.09a40.179 40.179 0 01-7.463-22.299c-.308-13.32 5.247-36.091 9.394-50.65 3.774-13.233 6.156-24.308 6.156-24.308l-17.726-5.888s-32.817 42.682-34.162 45.086c-1.346 2.404-5.896 8.008-4.82 20.28 1.076 12.272 30.546 50.177 38.317 54.441 7.771 4.265 14.735 4.54 21.707 5.604 6.046.931 50.781.316 62.517.134a23.014 23.014 0 0011.545-3.215c3.498-2.113 6.133-5.612 9.038-11.351l6.164-12.012 86.574-13.683z"></path><path d="M297.951 263.37l13.081 20.399a3.143 3.143 0 01-.177 3.792 3.173 3.173 0 01-3.709.874 15.052 15.052 0 01-4.384-2.963c-5.982-5.668-16.618-20.596-16.618-20.596l11.807-1.506z" fill="#455A64"></path><path d="M204.184 267.043a1.71 1.71 0 00-.079-.299l-.261-.859a22.327 22.327 0 01-.689-3.366 23.68 23.68 0 012.026-12.312 25.777 25.777 0 014.819-7.212 31.654 31.654 0 017.914-6.037 40.292 40.292 0 0110.367-3.847c3.899-.84 7.88-1.25 11.87-1.221 3.985.025 7.963.315 11.91.867 3.83.512 7.502 1.142 10.968 1.931a64.872 64.872 0 0117.607 6.487 43.717 43.717 0 0110.066 7.645 37.06 37.06 0 012.295 2.578l.562.701c.062.082.13.159.206.229a26.48 26.48 0 00-2.944-3.618 42.721 42.721 0 00-10.034-7.788 64.405 64.405 0 00-17.671-6.605 124.306 124.306 0 00-11-1.962 89.368 89.368 0 00-11.965-.883 54.641 54.641 0 00-11.934 1.237 40.454 40.454 0 00-10.461 3.941 31.882 31.882 0 00-8.017 6.14 25.905 25.905 0 00-4.835 7.331 23.556 23.556 0 00-1.915 12.445c.167 1.145.432 2.274.791 3.374l.301.843c.027.09.062.177.103.26z" fill="#263238"></path><path d="M210.167 260.013c.047 0-.175-.497-.388-1.395a10.16 10.16 0 01-.119-3.942 16.1 16.1 0 011.931-5.478 19.311 19.311 0 011.915-2.869 17.555 17.555 0 012.572-2.656 22.735 22.735 0 016.172-3.594 28.848 28.848 0 015.667-1.576c1.31-.22 2.63-.37 3.956-.45.487-.006.974-.043 1.456-.11a1.337 1.337 0 00-.379 0h-1.085a30.289 30.289 0 00-3.956.323c-1.969.282-3.9.776-5.761 1.474a22.459 22.459 0 00-6.331 3.634 17.595 17.595 0 00-2.627 2.719 19.128 19.128 0 00-1.931 2.94 15.905 15.905 0 00-1.884 5.62 9.706 9.706 0 00.253 3.98c.093.353.221.696.38 1.025.035.125.088.245.159.355z" fill="#F5F5F5"></path><path opacity="0.4" d="M230.496 232.473a41.622 41.622 0 00-15.629 6.305 27.527 27.527 0 00-10.469 12.958c-2.074 5.313-1.765 12.352.419 16.75l-7.336.607c-2.469-8.206.222-18.271 6.157-24.695 3.4-3.75 7.55-6.751 12.184-8.811a36.537 36.537 0 0114.722-3.146"></path><path d="M232.831 223.574h64.17c3.75 0 6.79-3.028 6.79-6.763v-41.735c0-3.735-3.04-6.763-6.79-6.763h-64.17c-3.75 0-6.79 3.028-6.79 6.763v41.735c0 3.735 3.04 6.763 6.79 6.763z" fill="#455A64"></path><path d="M226.049 180.641c0 .11 17.481.204 39.037.204 21.556 0 39.045-.094 39.045-.204 0-.111-17.481-.237-39.077-.237-21.595 0-39.005.126-39.005.237zM174.049 227.231c0 .111 23.329.205 52.111.205 28.781 0 52.11-.094 52.11-.205 0-.11-23.329-.205-52.11-.205-28.782 0-52.111.095-52.111.205z" fill="#263238"></path><path d="M173.986 223.574a8.927 8.927 0 01-1.876-4.635c-.166-2.601 1.029-5.84 3.831-5.84h35.848a10.545 10.545 0 017.447 3.062 10.47 10.47 0 013.086 7.413h-48.336z" fill="#455A64"></path><path d="M126.719 186.095l6.236-12.95a7.905 7.905 0 00.368-5.669 7.942 7.942 0 00-3.534-4.46l-18.644-11.074a6.354 6.354 0 00-3.221-.883h-4.028l-1.583 26.176 6.213 2.365-3.957 6.369 22.15.126z"></path><path d="M103.849 152.029s-6.378 1.458-7.178 11.247c-.799 9.79 5.627 12.84 5.627 12.84l1.551-24.087z" fill="#EBEBEB"></path><path d="M124.55 168.069s12.891 6.085 14.466 7.094c1.092.693 2.026 1.907 1.171 4.043-1.464 3.641-7.486.213-7.486.213l-11.997-5.975s-4.613-2.167-2.912-4.887c1.899-3.042 6.758-.488 6.758-.488z" fill="#263238"></path><path d="M142.799 165.854s-12.108 2.065-13.137 2.364c-1.028.3-5.072 2.184-5.278 3.413a36.994 36.994 0 000 4.848s.728.591 1.187-.591c.302-1.15.432-2.337.388-3.524l2.263-.867-1.234 2.184-.206 5.115s1.583-.142 1.883-1.371c.194-.852.294-1.721.301-2.594l1.646-1.395-1.234 1.663-.42 3.689s1.203.386 1.583-.433c.278-1.063.416-2.157.411-3.256l4.654-1.615 3.078 1.71 4.843-2.64-.728-6.7z" fill="#FFBE9D"></path><path d="M128.966 157.893c2.78 0 5.033-3.959 5.033-8.844 0-4.884-2.253-8.843-5.033-8.843-2.78 0-5.033 3.959-5.033 8.843 0 4.885 2.253 8.844 5.033 8.844z" fill="#263238"></path><path d="M128.151 155.126l-2.777 9.514a2.472 2.472 0 01-1.146-1.184 2.452 2.452 0 01-.144-1.638c.696-3.271 1.084-5.596 1.851-8.465.095-.292 2.208 1.734 2.208 1.734" fill="#263238"></path><path opacity="0.4" d="M182.889 270.708c.277-.788.554-1.576.791-2.419.238-.844.538-1.577.744-2.365.32-1.164.555-2.349.704-3.547 4.669 18.917-2.461 32.261-14.695 33.199-17.877 1.372-39.678 2.365-48.494.063-16.072-4.201-21.968-17.545-23.376-19.752-1.41-2.207-14.19-25.475-6.331-47.883 7.858-22.409 21.493-46.205 21.493-46.205l13.017 4.319s-2.374 11.035-6.156 24.309c-4.147 14.558-9.702 37.329-9.394 50.65a40.167 40.167 0 007.463 22.274h59.082s1.266-1.261 5.168-12.611"></path><path d="M308.262 260.627l-.419-4.492-107.845 12.374a10.675 10.675 0 00-7.311 4.207 10.599 10.599 0 00-1.819 3.892 10.558 10.558 0 00-.121 4.292l.482 2.719 111.581-16.158a6.34 6.34 0 004.105-2.325 6.288 6.288 0 001.347-4.509z"></path><path opacity="0.6" d="M308.262 260.627l-.419-4.492-107.845 12.374a10.675 10.675 0 00-7.311 4.207 10.599 10.599 0 00-1.819 3.892 10.558 10.558 0 00-.121 4.292l.482 2.719 111.581-16.158a6.34 6.34 0 004.105-2.325 6.288 6.288 0 001.347-4.509z"></path><path opacity="0.3" d="M98.57 290.674s-23.74-26.011-28.639-46.457a46.39 46.39 0 00-7.351.544s14.038 38.015 35.99 45.913z"></path><path d="M70.28 235.058c-.06.214-.103.433-.127.654-.063.434-.19 1.072-.269 1.9a29.242 29.242 0 00.182 7.094 35.933 35.933 0 003.165 9.994 113.354 113.354 0 006.284 11.193 149.307 149.307 0 0013.896 18.719 361.95 361.95 0 004.637 5.337l1.282 1.426c.142.173.299.334.467.481a4.094 4.094 0 00-.403-.536l-1.227-1.482-4.535-5.415a160.977 160.977 0 01-13.769-18.743 118.54 118.54 0 01-6.315-11.185 36.485 36.485 0 01-3.165-9.876 31.026 31.026 0 01-.309-6.999c.055-.828.158-1.466.19-1.908.023-.217.028-.436.016-.654zM115.105 287.097c2.021-1.97 3.595-3.633 3.515-3.714-.079-.081-1.782 1.451-3.803 3.421-2.02 1.97-3.594 3.633-3.514 3.714.079.081 1.782-1.451 3.802-3.421zM181.773 289.688a15.757 15.757 0 00-4.242-6.218c-.087.078.997 1.371 2.153 3.089 1.155 1.719 1.986 3.177 2.089 3.129zM227.394 304.704a15.946 15.946 0 01-3.237-4.099 14.132 14.132 0 01-1.582-5.399 12.472 12.472 0 011.163-6.712 12.53 12.53 0 014.519-5.111 14.284 14.284 0 015.207-2.168 16.082 16.082 0 015.231-.071 1.26 1.26 0 00-.357-.102 8.087 8.087 0 00-1.036-.197 12.468 12.468 0 00-3.894.094 14.183 14.183 0 00-5.365 2.136 12.734 12.734 0 00-4.69 5.266 12.672 12.672 0 00-1.158 6.944 14.044 14.044 0 001.709 5.517 12.382 12.382 0 002.374 3.074c.249.243.514.469.792.678.1.065.209.116.324.15zM268.235 293.168c.106-2.098.099-3.804-.015-3.809-.113-.006-.291 1.69-.396 3.788-.105 2.099-.099 3.804.015 3.81.114.006.291-1.691.396-3.789zM264.604 292.707c.27-2.103.397-3.82.284-3.834-.112-.014-.422 1.679-.692 3.782-.27 2.103-.397 3.819-.284 3.833.112.015.422-1.678.692-3.781zM248.721 223.779c16.175 0 29.288-.092 29.288-.205 0-.113-13.113-.205-29.288-.205s-29.288.092-29.288.205c0 .113 13.113.205 29.288.205z" fill="#263238"></path><path d="M261.889 223.535c.111 0 .206-14.976.206-33.405 0-18.428-.095-33.411-.206-33.411-.111 0-.206 14.975-.206 33.411 0 18.437.103 33.405.206 33.405zM269.929 223.479c.111 0-.451-14.976-1.25-33.388-.799-18.412-1.583-33.38-1.662-33.372-.079.007.451 14.975 1.25 33.388.8 18.412 1.536 33.38 1.662 33.372z" fill="#263238"></path><path d="M288.091 314.635a2.24 2.24 0 00.348-.347c.213-.244.546-.583.926-1.064a30.442 30.442 0 002.92-4.272 32.58 32.58 0 00-.135-32.687 30.451 30.451 0 00-2.952-4.248c-.379-.481-.72-.788-.933-1.056a2.24 2.24 0 00-.348-.347c.079.144.175.279.284.402.19.26.515.607.871 1.096a34.683 34.683 0 012.825 4.295 33.102 33.102 0 014.306 16.184 33.106 33.106 0 01-4.171 16.219 34.697 34.697 0 01-2.794 4.32c-.356.496-.673.851-.863 1.103a2.212 2.212 0 00-.284.402zM174.722 254.582l.245.465 4.748 8.93 6.679 6.408-13.35 17.703-11.126-1.836s1.25-2.53 6.829-3.019l2.137-10.609-7.842-12.107" fill="#455A64"></path><path d="M186.402 270.377l-13.342 17.704-11.126-1.837 1.527-1.458 9.132.993 12.393-16.765 1.416 1.363z" fill="#E0E0E0"></path><path d="M169.657 278.362c.064.126.792-.126 1.583 0 .791.126 1.424.631 1.535.528.111-.102-.396-.835-1.44-1.017-1.045-.181-1.773.387-1.678.489zM170.274 275.777c.095.094.705-.473 1.583-.497.878-.024 1.583.497 1.646.394.063-.102-.047-.252-.332-.473a2.12 2.12 0 00-2.628.087c-.237.213-.316.426-.269.489zM170.765 272.348c.111.079.602-.497 1.417-.638.815-.142 1.472.228 1.582.11.111-.118-.079-.229-.364-.394a1.956 1.956 0 00-2.374.418c-.269.268-.316.472-.261.504zM168.225 269.235c.127.071.546-.513 1.306-.844.759-.331 1.464-.284 1.495-.418.032-.134-.791-.457-1.701 0-.91.458-1.227 1.222-1.1 1.262zM167.157 266.72c.047.048.49-.339 1.163-1.001l1.163-1.174c.259-.23.483-.495.665-.788a.898.898 0 00.047-.686.706.706 0 00-.609-.457 2.1 2.1 0 00-1.132.362 3.757 3.757 0 00-1.653 2.16 2.077 2.077 0 000 1.576c.082-.487.193-.968.332-1.442.191-.486.479-.929.847-1.301.215-.213.457-.398.72-.551.25-.166.539-.266.839-.292a.209.209 0 01.19.134.439.439 0 010 .315 3.733 3.733 0 01-.562.702l-1.084 1.245c-.626.678-.974 1.151-.926 1.198z" fill="#263238"></path><path d="M166.706 266.98c.055 0 .11-.583-.38-1.347a2.827 2.827 0 00-3.166-1.136.524.524 0 00-.237.371.62.62 0 00.079.37c.091.156.206.297.34.418.22.213.458.406.713.576.427.287.897.505 1.392.646.442.178.93.214 1.393.102 0-.078-.522-.126-1.282-.433a5.523 5.523 0 01-1.242-.694 5.205 5.205 0 01-.633-.544 1.441 1.441 0 01-.246-.299v-.103a.905.905 0 01.341-.063c.139-.011.28-.011.419 0a2.754 2.754 0 011.883.993c.232.368.441.75.626 1.143z" fill="#263238"></path><path d="M180.232 269.025a1.332 1.332 0 00-1.098-1.533 1.336 1.336 0 00-1.54 1.094 1.333 1.333 0 001.099 1.533 1.336 1.336 0 001.539-1.094z" fill="#E0E0E0"></path><path d="M134.205 263.095l-3.569 23.078-28.853-4.272c.578-2.719 16.334-6.022 16.334-6.022l1.677-14.881 14.411 2.097z" fill="#455A64"></path><path d="M127.217 275.958a1.192 1.192 0 01.617 1.458c-.115.269-.33.483-.599.599-.27.115-.573.124-.849.024a1.256 1.256 0 01-.641-1.577 1.188 1.188 0 011.583-.48M130.636 286.173l.269-2.365-27.768-3.223s-1.369.362-1.362 1.292l28.861 4.296z" fill="#E0E0E0"></path><path d="M117.666 275.666c0 .142.68.308 1.305.867.626.56.911 1.199 1.045 1.159.135-.039.048-.875-.72-1.537-.768-.662-1.646-.623-1.63-.489zM114.453 276.462c-.055.134.522.458.91 1.128.388.67.435 1.316.578 1.324.142.008.348-.788-.151-1.577-.498-.788-1.313-1.009-1.337-.875zM112.189 279.812c.127.048.428-.622.174-1.442-.253-.82-.862-1.23-.933-1.119-.072.11.269.583.459 1.261.189.678.166 1.269.3 1.3zM118.425 272.317c.04.134.713 0 1.504.212.791.213 1.369.513 1.464.402.095-.11-.427-.701-1.361-.89-.934-.189-1.662.149-1.607.276zM119.62 269.006c.455.198.956.269 1.448.205a6.724 6.724 0 002.477-.552c.177-.065.343-.159.491-.276a.617.617 0 00.174-.733.791.791 0 00-.57-.41 1.977 1.977 0 00-.554 0 5.36 5.36 0 00-.941.174 5.115 5.115 0 00-1.464.67c-.792.52-1.069 1.009-1.021 1.04.047.032.451-.339 1.203-.741a5.837 5.837 0 011.4-.536 5.44 5.44 0 01.871-.134c.316 0 .577 0 .633.15.055.15 0 .079-.056.158a1.456 1.456 0 01-.356.197c-.257.122-.521.23-.791.323a8.059 8.059 0 01-1.48.323c-.491.012-.98.059-1.464.142z" fill="#263238"></path><path d="M119.771 269.235c.047 0 .403-.434.585-1.332a4.713 4.713 0 00-.197-2.531 1.206 1.206 0 00-.792-.867.688.688 0 00-.664.316c-.1.156-.178.326-.23.504a3.187 3.187 0 00-.142.97 3.325 3.325 0 00.395 1.576c.451.828 1.013 1.08 1.037 1.04a11.87 11.87 0 01-.72-1.19 3.331 3.331 0 01-.253-1.418c.011-.282.061-.561.15-.828.087-.3.245-.528.356-.481.111.047.356.284.435.544.107.271.189.55.246.835.091.486.112.983.063 1.474-.111.836-.34 1.356-.269 1.388zM156.909 208.882l24.745 53.708-16.341 9.774-34.218-64.625" fill="#263238"></path><path d="M116.099 273.585l17.758 2.838 10.627-63.167 52.514 3.792a12.775 12.775 0 004.139-.402c14.751-4.028 12.749-22.748 11.332-25.751l-72.654-2.081a15.51 15.51 0 00-10.427 3.633 15.391 15.391 0 00-5.336 9.633l-7.953 71.505z" fill="#263238"></path><path d="M213.173 193.867l-.261-26.705s3.459-17.34 4.487-24.19c1.583-10.601 3.767-15.63-13.658-23.165l-3.807-1.466-5.895.079c-7.035.528-14.443 6.857-14.609 11.035l-6.782 60.179 40.525 4.233z"></path><path d="M212.081 126.018s4.915 10.546 3.957 20.154l-18.335 17.53c-4.115 4.556-9.251 6.495-15.827 6.889l-37.938 4.13-1.052-9.884 36.093-10.184c1.433-.26 2.153-1.757 3.253-2.711l29.849-25.924z"></path><path d="M215.049 129.06a2.648 2.648 0 00-.728-.488 8.76 8.76 0 00-2.453-.686 12.585 12.585 0 00-4.099 0c-.42.076-.825.214-1.203.41a10.63 10.63 0 00-1.116.788 27.85 27.85 0 00-2.216 1.931c-1.519 1.411-2.96 3.2-4.645 5.013a276.15 276.15 0 01-5.54 5.801 277.6 277.6 0 01-6.481 6.385 136.857 136.857 0 01-3.624 3.31c-.641.528-1.274 1.143-1.883 1.719a4.546 4.546 0 01-2.129 1.245l-36.117 10.152-.167.047v.174l.238 2.215.791 7.669v.205h.206l16.056-1.758 7.597-.835 7.273-.734a198.21 198.21 0 006.885-.851 30.94 30.94 0 006.37-1.474 23.523 23.523 0 005.373-2.869 66.897 66.897 0 004.432-3.413c5.421-4.611 9.401-8.725 12.163-11.531a227.747 227.747 0 003.126-3.279l.791-.867c.174-.197.261-.307.261-.307l-.285.275-.791.844-3.165 3.231c-2.794 2.775-6.806 6.858-12.235 11.429-1.369 1.127-2.833 2.278-4.431 3.374a23.355 23.355 0 01-5.31 2.814 30.736 30.736 0 01-6.331 1.434c-2.216.316-4.511.584-6.877.836l-7.272.717-7.597.788-16.065 1.742.23.181-.792-7.669-.237-2.215-.15.221 36.085-10.247a4.856 4.856 0 002.311-1.339c.641-.607 1.219-1.175 1.875-1.711a116.375 116.375 0 003.633-3.334 278.76 278.76 0 006.465-6.416 301.256 301.256 0 005.54-5.833c1.701-1.836 3.102-3.618 4.597-5.028a27.992 27.992 0 012.184-1.932c.345-.285.707-.548 1.085-.788a4.13 4.13 0 011.147-.402 12.722 12.722 0 014.052-.063c.84.094 1.663.303 2.445.623.254.148.497.314.728.496z" fill="#263238"></path><path d="M205.577 95.183l-1.844 26.011a8.094 8.094 0 01-2.57 5.361 8.155 8.155 0 01-5.55 2.174 8.14 8.14 0 01-7.672-5.398 8.073 8.073 0 01-.447-3.272c.166-2.475.309-4.5.309-4.5s-6.331-.978-6.394-7.268c-.048-3.633.585-11.878 1.123-18.2a8.243 8.243 0 012.654-5.378 8.304 8.304 0 015.608-2.172h3.83a11.721 11.721 0 018.159 4.016 11.634 11.634 0 012.794 8.626z" fill="#FFBE9D"></path><path d="M187.803 115.488a14.732 14.732 0 008.238-2.365s-1.947 4.532-8.254 3.941l.016-1.576z" fill="#EB996E"></path><path d="M183.957 98.194a.9.9 0 00.871.907.862.862 0 00.933-.788.902.902 0 00-.87-.906.867.867 0 00-.842.463.854.854 0 00-.092.324zM183.625 96.421c.11.118.791-.386 1.764-.386.974 0 1.686.488 1.789.37.103-.118-.063-.26-.372-.489a2.484 2.484 0 00-1.432-.44 2.38 2.38 0 00-1.409.448c-.293.229-.419.442-.34.497zM193.042 98.194a.902.902 0 00.87.906.867.867 0 00.842-.463c.052-.101.083-.211.092-.324a.9.9 0 00-.871-.907.869.869 0 00-.631.2.859.859 0 00-.302.588zM193.168 96.602c.111.118.792-.386 1.765-.386.973 0 1.685.489 1.788.37.103-.118-.063-.26-.372-.488-.42-.291-.92-.445-1.432-.442a2.383 2.383 0 00-1.409.45c-.292.228-.395.441-.34.496zM189.647 103.775a6.46 6.46 0 00-1.583-.284c-.245 0-.483-.071-.522-.244a1.251 1.251 0 01.166-.733l.736-1.884a32.285 32.285 0 001.646-4.918 32.277 32.277 0 00-2.042 4.776l-.704 1.892c-.156.298-.2.641-.127.969a.642.642 0 00.16.228c.07.062.154.109.244.135.137.036.278.054.419.055a6.355 6.355 0 001.607.008zM192.503 104.445c-.158 0-.158 1.04-1.06 1.789-.902.749-2.026.631-2.034.788-.008.158.254.205.728.213a2.633 2.633 0 001.694-.591c.447-.38.73-.916.791-1.498.071-.449-.047-.709-.119-.701zM192.923 92.81c.095.261 1.068.143 2.208.277 1.139.134 2.057.45 2.208.213.071-.11-.095-.363-.467-.615a3.872 3.872 0 00-3.363-.37c-.42.165-.633.37-.586.496zM183.981 93.623c.174.22.839 0 1.646 0 .807 0 1.488.15 1.638-.079.071-.11 0-.331-.332-.536a2.384 2.384 0 00-2.652.079c-.277.205-.371.425-.3.536z" fill="#263238"></path><path d="M203.448 99.913c.111-.048 4.337-1.277 4.202 3.026-.135 4.304-4.447 3.279-4.447 3.153 0-.126.245-6.18.245-6.18z" fill="#FFBE9D"></path><path d="M204.572 104.5s.071.055.198.118a.789.789 0 00.562 0 1.854 1.854 0 00.918-1.639 2.46 2.46 0 00-.175-1.08.862.862 0 00-.546-.591.381.381 0 00-.451.189c-.063.118 0 .205-.063.213-.063.008-.087-.079-.047-.252a.473.473 0 01.182-.268.571.571 0 01.419-.095 1.056 1.056 0 01.791.694c.172.378.248.792.222 1.206a1.949 1.949 0 01-1.155 1.82.793.793 0 01-.681-.134c-.166-.079-.182-.173-.174-.181z" fill="#EB996E"></path><path d="M205.854 99.763a2.273 2.273 0 00-2.082 1.064c-.285.615-.34 1.308-.625 1.923a1.53 1.53 0 01-1.583 1.017 1.327 1.327 0 01-.902-.985 3.641 3.641 0 010-1.388c.254-2.01.681-4.004.792-6.021a10.3 10.3 0 00-1.29-5.849 5.69 5.69 0 00-5.049-2.83c-1.345.11-2.572.789-3.909.994a5.299 5.299 0 01-4.384-1.459c-.143-.141-.792-.583-.792-.583.018-.478.175-.94.451-1.332 2.643-2.435 7.415-3.153 10.905-2.238 1.778.435 3.44 1.25 4.869 2.39a12.573 12.573 0 013.409 4.207c1.503 3.263 1.06 7.795.229 11.098" fill="#263238"></path><path d="M182.469 89.138s16.571-5.313 23.741 8.97a26.72 26.72 0 001.068-5.518c0-1.277-.791-8.899-8.642-11.295.008.032-11.854-4.477-16.167 7.843z"></path><path d="M196.706 89.493a3.609 3.609 0 01-2.739 1.683 3.624 3.624 0 01-2.999-1.163 2.12 2.12 0 01-.83.993 2.135 2.135 0 01-3.19-1.206c-.44.496-.979.896-1.582 1.174a1.651 1.651 0 01-1.844-.386 1.57 1.57 0 01.111-1.891 3.95 3.95 0 011.677-1.128 12.185 12.185 0 016.252-.945 8.437 8.437 0 015.437 2.979" fill="#263238"></path><path opacity="0.4" d="M182.469 89.138a7.715 7.715 0 015.271-2.365c4.89-.212 14.038 2.523 18.47 11.358a26.717 26.717 0 001.068-5.517c0-1.277-.791-8.899-8.642-11.295.008.008-11.854-4.5-16.167 7.819z"></path><path d="M205.521 96.437a31.15 31.15 0 00-9.654-9.214c-3.806-2.365-10.106-4.73-14.45-5.865a9.476 9.476 0 00-3.957-.417 3.597 3.597 0 00-2.96 2.412c-.411 1.631 2.493 4.146 3.854 5.13a44.971 44.971 0 004.147 2.444s0-3.027 4.819-3.65c6.576-.835 18.201 9.16 18.201 9.16z"></path><path opacity="0.3" d="M211.354 150.074c-1.71 4.107-3.435 9.175-5.912 12.871-2.477 3.697-5.785 6.976-9.907 8.671-5.168 2.151-11.285 2.506-16.429.291-.419-.181-1.242-.41-1.163-.859 0 0 1.701-.189 2.231-.276 10.399-1.75 11.522-3.026 16.5-6.944 3.102-2.443 9.979-9.829 14.68-13.778"></path><path d="M178.307 179.978c.103.338.249.661.435.962a12.087 12.087 0 001.678 2.365 18.137 18.137 0 008.048 4.902 36.753 36.753 0 009.369 1.395 71.59 71.59 0 002.865.056c.351.02.704.004 1.052-.048a5.227 5.227 0 00-1.044-.11l-2.857-.181a41.086 41.086 0 01-9.267-1.498 18.824 18.824 0 01-7.961-4.729 20.237 20.237 0 01-2.318-3.114z" fill="#263238"></path><path d="M133.54 278.307c.03-.079.051-.161.063-.245l.143-.725.506-2.798 1.812-10.286 5.777-33.979 2.841-16.986-.206.158 22.72 1.655 6.521.441 1.741.103h.601-.15l-.443-.048-1.733-.165-6.513-.552-22.704-1.805h-.174v.173l-2.873 16.978-5.658 34.003-1.67 10.31-.451 2.814-.102.733a1.118 1.118 0 00-.048.221z" fill="#455A64"></path><path d="M139.151 207.629c-.071.094 1.306 1.277 2.881 2.869 1.574 1.592 2.738 2.987 2.833 2.908a18.946 18.946 0 00-5.714-5.777z" fill="#455A64"></path><path d="M187.661 120.635s-.048.086-.095.26a4.386 4.386 0 00-.151.788 6.406 6.406 0 00.388 2.869 7.385 7.385 0 002.604 3.413 7.938 7.938 0 005.08 1.348 9.15 9.15 0 004.93-1.837 10.606 10.606 0 002.802-3.255c.468-.845.827-1.745 1.068-2.68.067-.26.12-.523.158-.788v-.276a17.778 17.778 0 01-1.503 3.578 10.727 10.727 0 01-2.778 3.098 8.948 8.948 0 01-4.748 1.734 7.653 7.653 0 01-4.835-1.253 7.263 7.263 0 01-2.556-3.208 6.755 6.755 0 01-.499-2.751c.071-.662.174-1.025.135-1.04zM176.494 155.055c.088-.255.144-.519.167-.788l.316-2.254.974-7.449c.356-2.916.641-5.556.791-7.472.087-.961.15-1.734.182-2.27a3.333 3.333 0 000-.835 3.312 3.312 0 00-.166.788l-.277 2.278-.934 7.456c-.356 2.909-.665 5.518-.855 7.465a62.028 62.028 0 00-.19 2.27 3.335 3.335 0 00-.008.811z" fill="#263238"></path></g><defs><clipPath id="home-ilustration_svg__clip0"><path fill="#fff" d="M0 0h554v325H0z"></path></clipPath></defs></svg>